<?xml version="1.0" encoding="UTF-8" standalone="no"?>
<!-- Created with Inkscape (http://www.inkscape.org/) -->

<svg
   version="1.1"
   id="svg1"
   width="1024"
   height="800"
   viewBox="0 0 1024 800"
   sodipodi:docname="Starventis -AR editable BlackBackGround-web.svg"
   inkscape:version="1.4 (e7c3feb100, 2024-10-09)"
   xmlns:inkscape="http://www.inkscape.org/namespaces/inkscape"
   xmlns:sodipodi="http://sodipodi.sourceforge.net/DTD/sodipodi-0.dtd"
   xmlns="http://www.w3.org/2000/svg"
   xmlns:svg="http://www.w3.org/2000/svg">
  <defs
     id="defs1" />
  <sodipodi:namedview
     id="namedview1"
     pagecolor="#000000"
     bordercolor="#000000"
     borderopacity="1"
     inkscape:showpageshadow="2"
     inkscape:pageopacity="0.0"
     inkscape:pagecheckerboard="0"
     inkscape:deskcolor="#c2c2c2"
     inkscape:zoom="1"
     inkscape:cx="515"
     inkscape:cy="620"
     inkscape:window-width="1920"
     inkscape:window-height="1003"
     inkscape:window-x="0"
     inkscape:window-y="0"
     inkscape:window-maximized="1"
     inkscape:current-layer="layer1"
     showgrid="false" />
  <g
     inkscape:groupmode="layer"
     id="layer1"
     inkscape:label="Image 1">
    <text
       xml:space="preserve"
       style="font-style:normal;font-variant:normal;font-weight:bold;font-stretch:normal;font-size:96px;font-family:Montserrat;-inkscape-font-specification:'Montserrat Bold';text-align:start;writing-mode:lr-tb;direction:ltr;text-anchor:start;white-space:pre;inline-size:736.272;display:inline;fill:#00257c;fill-opacity:1;fill-rule:evenodd"
       x="143.15366"
       y="226.98238"
       id="text2"
       transform="matrix(1.2896445,0,0,1.2412198,-97.698333,374.2944)"
       inkscape:label="text2"><tspan
         x="143.15366"
         y="226.98238"
         id="tspan1">STRAVENTIS</tspan></text>
    <text
       xml:space="preserve"
       style="font-style:normal;font-variant:normal;font-weight:normal;font-stretch:normal;font-size:58.9816px;font-family:Montserrat;-inkscape-font-specification:Montserrat;text-align:start;writing-mode:lr-tb;direction:ltr;text-anchor:start;fill:#00257c;fill-opacity:1;fill-rule:evenodd;stroke-width:1.38238"
       x="109.22363"
       y="673.237"
       id="text3"
       transform="scale(0.90878721,1.1003676)"><tspan
         sodipodi:role="line"
         id="tspan3"
         x="109.22363"
         y="673.237"
         style="font-style:normal;font-variant:normal;font-weight:normal;font-stretch:normal;font-family:Montserrat;-inkscape-font-specification:Montserrat;fill:#00257c;fill-opacity:1;stroke-width:1.38238">Turning vision into execution</tspan></text>
    <g
       id="g19"
       style="mix-blend-mode:normal;fill:#00b3b8;fill-opacity:1"
       transform="translate(0,-142)">
      <path
         style="font-variation-settings:normal;opacity:1;vector-effect:none;fill:#00b3b8;fill-opacity:1;stroke-width:1.28967;stroke-linecap:butt;stroke-linejoin:miter;stroke-miterlimit:4;stroke-dasharray:none;stroke-dashoffset:0;stroke-opacity:1;-inkscape-stroke:none;stop-color:#000000;stop-opacity:1"
         d="m 727.84147,673.2759 c -10.41531,-7.07738 -10.93872,-21.30076 -1.07144,-29.11579 8.88135,-7.03416 22.02643,-4.36979 28.26824,5.72967 9.77175,15.81103 -11.46757,34.07441 -27.1968,23.38612 z"
         id="path5" />
      <path
         style="font-variation-settings:normal;opacity:1;vector-effect:none;fill:#00b3b8;fill-opacity:1;stroke-width:1.28967;stroke-linecap:butt;stroke-linejoin:miter;stroke-miterlimit:4;stroke-dasharray:none;stroke-dashoffset:0;stroke-opacity:1;-inkscape-stroke:none;stop-color:#000000;stop-opacity:1"
         d="m 731.44408,675.11145 c -6.01927,-1.80465 -11.55879,-9.84491 -11.55879,-16.77685 0,-6.58403 5.57814,-14.81464 11.32597,-16.71159 4.52643,-1.49386 14.85931,-1.27729 14.86242,0.3115 10e-4,0.53199 0.76776,0.96725 1.70382,0.96725 2.39407,0 6.63925,5.20283 8.42508,10.32565 2.01487,5.77986 0.78,11.3827 -3.57988,16.24262 -5.52485,6.1585 -12.90073,8.12324 -21.17862,5.64142 z"
         id="path6" />
      <path
         style="fill:#00b3b8;fill-opacity:1;fill-rule:evenodd;stroke-width:0.857493"
         id="path3-3"
         sodipodi:type="arc"
         sodipodi:cx="768.78589"
         sodipodi:cy="615.02014"
         sodipodi:rx="19.345087"
         sodipodi:ry="19.345087"
         sodipodi:start="0"
         sodipodi:end="6.2068606"
         sodipodi:open="true"
         sodipodi:arc-type="arc"
         d="m 788.13098,615.02014 a 19.345087,19.345087 0 0 1 -18.97599,19.34157 19.345087,19.345087 0 0 1 -19.7001,-18.60349 19.345087,19.345087 0 0 1 18.22422,-20.05148 19.345087,19.345087 0 0 1 20.39555,17.83833" />
      <path
         style="fill:#00b3b8;fill-opacity:1;fill-rule:evenodd;stroke-width:0.757317"
         id="path3-3-1"
         sodipodi:type="arc"
         sodipodi:cx="780.03021"
         sodipodi:cy="567.54407"
         sodipodi:rx="17.410578"
         sodipodi:ry="16.765741"
         sodipodi:start="0"
         sodipodi:end="6.2068606"
         sodipodi:open="true"
         sodipodi:arc-type="arc"
         d="m 797.44079,567.54407 a 17.410578,16.765741 0 0 1 -17.07838,16.76269 17.410578,16.765741 0 0 1 -17.7301,-16.12303 17.410578,16.765741 0 0 1 16.4018,-17.37794 17.410578,16.765741 0 0 1 18.35599,15.45988" />
      <path
         style="fill:#00b3b8;fill-opacity:1;fill-rule:evenodd;stroke-width:0.757317"
         id="path3-3-1-3"
         sodipodi:type="arc"
         sodipodi:cx="779.97223"
         sodipodi:cy="521.36523"
         sodipodi:rx="17.410578"
         sodipodi:ry="16.765741"
         sodipodi:start="0"
         sodipodi:end="6.2068606"
         sodipodi:open="true"
         sodipodi:arc-type="arc"
         d="m 797.38281,521.36523 a 17.410578,16.765741 0 0 1 -17.07839,16.76269 17.410578,16.765741 0 0 1 -17.73009,-16.12302 17.410578,16.765741 0 0 1 16.4018,-17.37795 17.410578,16.765741 0 0 1 18.35599,15.45989" />
      <path
         style="fill:#00b3b8;fill-opacity:1;fill-rule:evenodd;stroke-width:0.707458"
         id="path3-3-1-3-6"
         sodipodi:type="arc"
         sodipodi:cx="766.23987"
         sodipodi:cy="481.11084"
         sodipodi:rx="15.660578"
         sodipodi:ry="16.265739"
         sodipodi:start="0"
         sodipodi:end="6.2068606"
         sodipodi:open="true"
         sodipodi:arc-type="arc"
         d="m 781.90045,481.11084 a 15.660578,16.265739 0 0 1 -15.36178,16.26278 15.660578,16.265739 0 0 1 -15.94798,-15.64219 15.660578,16.265739 0 0 1 14.7532,-16.85969 15.660578,16.265739 0 0 1 16.51096,14.99883" />
      <path
         style="fill:#00b3b8;fill-opacity:1;fill-rule:evenodd;stroke-width:0.714005"
         id="path3-3-1-3-6-2"
         sodipodi:type="arc"
         sodipodi:cx="742.51636"
         sodipodi:cy="445.21411"
         sodipodi:rx="15.476068"
         sodipodi:ry="16.765739"
         sodipodi:start="0"
         sodipodi:end="6.2068606"
         sodipodi:open="true"
         sodipodi:arc-type="arc"
         d="m 757.99242,445.21411 a 15.476068,16.765739 0 0 1 -15.18078,16.76269 15.476068,16.765739 0 0 1 -15.76008,-16.12302 15.476068,16.765739 0 0 1 14.57938,-17.37795 15.476068,16.765739 0 0 1 16.31643,15.45988" />
      <path
         style="fill:#00b3b8;fill-opacity:1;fill-rule:evenodd;stroke-width:0.61437"
         id="path3-3-1-3-6-2-5"
         sodipodi:type="arc"
         sodipodi:cx="709.54657"
         sodipodi:cy="420.15869"
         sodipodi:rx="13.541558"
         sodipodi:ry="14.186395"
         sodipodi:start="0"
         sodipodi:end="6.2068606"
         sodipodi:open="true"
         sodipodi:arc-type="arc"
         d="m 723.08813,420.15869 a 13.541558,14.186395 0 0 1 -13.28319,14.18381 13.541558,14.186395 0 0 1 -13.79007,-13.64255 13.541558,14.186395 0 0 1 12.75696,-14.70442 13.541558,14.186395 0 0 1 14.27687,13.08144" />
      <path
         style="fill:#00b3b8;fill-opacity:1;fill-rule:evenodd;stroke-width:0.61437"
         id="path3-3-1-3-6-2-5-9"
         sodipodi:type="arc"
         sodipodi:cx="674.47101"
         sodipodi:cy="399.71036"
         sodipodi:rx="13.541558"
         sodipodi:ry="14.186395"
         sodipodi:start="0"
         sodipodi:end="6.2068606"
         sodipodi:open="true"
         sodipodi:arc-type="arc"
         d="m 688.01257,399.71036 a 13.541558,14.186395 0 0 1 -13.28319,14.18381 13.541558,14.186395 0 0 1 -13.79007,-13.64256 13.541558,14.186395 0 0 1 12.75695,-14.70441 13.541558,14.186395 0 0 1 14.27688,13.08144" />
      <path
         style="fill:#00b3b8;fill-opacity:1;fill-rule:evenodd;stroke-width:0.571662"
         id="path3-3-1-3-6-2-5-9-2"
         sodipodi:type="arc"
         sodipodi:cx="639.50128"
         sodipodi:cy="396.40048"
         sodipodi:rx="12.896722"
         sodipodi:ry="12.896722"
         sodipodi:start="0"
         sodipodi:end="6.2068606"
         sodipodi:open="true"
         sodipodi:arc-type="arc"
         d="m 652.398,396.40048 a 12.896722,12.896722 0 0 1 -12.65065,12.89438 12.896722,12.896722 0 0 1 -13.1334,-12.40233 12.896722,12.896722 0 0 1 12.14948,-13.36765 12.896722,12.896722 0 0 1 13.59703,11.89222" />
      <path
         style="fill:#00b3b8;fill-opacity:1;fill-rule:evenodd;stroke-width:0.571662"
         id="path3-3-1-3-6-2-5-9-2-1"
         sodipodi:type="arc"
         sodipodi:cx="685.89673"
         sodipodi:cy="538.39673"
         sodipodi:rx="12.896722"
         sodipodi:ry="12.896722"
         sodipodi:start="0"
         sodipodi:end="6.2068606"
         sodipodi:open="true"
         sodipodi:arc-type="arc"
         d="m 698.79345,538.39673 a 12.896722,12.896722 0 0 1 -12.65065,12.89437 12.896722,12.896722 0 0 1 -13.1334,-12.40232 12.896722,12.896722 0 0 1 12.14948,-13.36765 12.896722,12.896722 0 0 1 13.59702,11.89222" />
      <path
         style="fill:#00b3b8;fill-opacity:1;fill-rule:evenodd;stroke-width:0.571662"
         id="path3-3-1-3-6-2-5-9-2-0"
         sodipodi:type="arc"
         sodipodi:cx="683.39673"
         sodipodi:cy="568.39673"
         sodipodi:rx="12.896722"
         sodipodi:ry="12.896722"
         sodipodi:start="0"
         sodipodi:end="6.2068606"
         sodipodi:open="true"
         sodipodi:arc-type="arc"
         d="m 696.29345,568.39673 a 12.896722,12.896722 0 0 1 -12.65065,12.89437 12.896722,12.896722 0 0 1 -13.1334,-12.40232 12.896722,12.896722 0 0 1 12.14948,-13.36765 12.896722,12.896722 0 0 1 13.59702,11.89222" />
      <path
         style="fill:#00b3b8;fill-opacity:1;fill-rule:evenodd;stroke-width:0.440031"
         id="path3-3-1-3-6-2-5-9-2-4"
         sodipodi:type="arc"
         sodipodi:cx="603.84448"
         sodipodi:cy="402.16187"
         sodipodi:rx="9.7122126"
         sodipodi:ry="10.146722"
         sodipodi:start="0"
         sodipodi:end="6.2068606"
         sodipodi:open="true"
         sodipodi:arc-type="arc"
         d="m 613.55669,402.16187 a 9.7122126,10.146722 0 0 1 -9.5269,10.14487 9.7122126,10.146722 0 0 1 -9.89045,-9.75775 9.7122126,10.146722 0 0 1 9.14948,-10.51723 9.7122126,10.146722 0 0 1 10.2396,9.35641" />
      <path
         style="fill:#00b3b8;fill-opacity:1;fill-rule:evenodd;stroke-width:0.440031"
         id="path3-3-1-3-6-2-5-9-2-4-7"
         sodipodi:type="arc"
         sodipodi:cx="678.71222"
         sodipodi:cy="512.14673"
         sodipodi:rx="9.7122126"
         sodipodi:ry="10.146722"
         sodipodi:start="0"
         sodipodi:end="6.2068606"
         sodipodi:open="true"
         sodipodi:arc-type="arc"
         d="m 688.42443,512.14673 a 9.7122126,10.146722 0 0 1 -9.5269,10.14487 9.7122126,10.146722 0 0 1 -9.89045,-9.75774 9.7122126,10.146722 0 0 1 9.14948,-10.51723 9.7122126,10.146722 0 0 1 10.2396,9.3564" />
      <path
         style="fill:#00b3b8;fill-opacity:1;fill-rule:evenodd;stroke-width:0.442808"
         id="path3-3-1-3-6-2-5-9-2-4-0"
         sodipodi:type="arc"
         sodipodi:cx="571.6499"
         sodipodi:cy="413.53903"
         sodipodi:rx="9.6725397"
         sodipodi:ry="10.317377"
         sodipodi:start="0"
         sodipodi:end="6.2068606"
         sodipodi:open="true"
         sodipodi:arc-type="arc"
         d="m 581.32244,413.53903 a 9.6725397,10.317377 0 0 1 -9.48799,10.3155 9.6725397,10.317377 0 0 1 -9.85004,-9.92186 9.6725397,10.317377 0 0 1 9.1121,-10.69412 9.6725397,10.317377 0 0 1 10.19777,9.51378" />
      <path
         style="fill:#00b3b8;fill-opacity:1;fill-rule:evenodd;stroke-width:0.442808"
         id="path3-3-1-3-6-2-5-9-2-4-0-2"
         sodipodi:type="arc"
         sodipodi:cx="670.67255"
         sodipodi:cy="594.31738"
         sodipodi:rx="9.6725397"
         sodipodi:ry="10.317377"
         sodipodi:start="0"
         sodipodi:end="6.2068606"
         sodipodi:open="true"
         sodipodi:arc-type="arc"
         d="m 680.34509,594.31738 a 9.6725397,10.317377 0 0 1 -9.48799,10.3155 9.6725397,10.317377 0 0 1 -9.85005,-9.92186 9.6725397,10.317377 0 0 1 9.11211,-10.69411 9.6725397,10.317377 0 0 1 10.19777,9.51377" />
      <path
         style="fill:#00b3b8;fill-opacity:1;fill-rule:evenodd;stroke-width:0.357004"
         id="path3-3-1-3-6-2-5-9-2-4-0-6"
         sodipodi:type="arc"
         sodipodi:cx="543.91187"
         sodipodi:cy="428.43576"
         sodipodi:rx="8.3828669"
         sodipodi:ry="7.7380314"
         sodipodi:start="0"
         sodipodi:end="6.2068606"
         sodipodi:open="true"
         sodipodi:arc-type="arc"
         d="m 552.29473,428.43576 a 8.3828669,7.7380314 0 0 1 -8.22292,7.73662 8.3828669,7.7380314 0 0 1 -8.53671,-7.44139 8.3828669,7.7380314 0 0 1 7.89716,-8.02059 8.3828669,7.7380314 0 0 1 8.83807,7.13533" />
      <path
         style="fill:#00b3b8;fill-opacity:1;fill-rule:evenodd;stroke-width:0.357004"
         id="path3-3-1-3-6-2-5-9-2-4-0-6-8"
         sodipodi:type="arc"
         sodipodi:cx="641.38287"
         sodipodi:cy="480.73804"
         sodipodi:rx="8.3828669"
         sodipodi:ry="7.7380314"
         sodipodi:start="0"
         sodipodi:end="6.2068606"
         sodipodi:open="true"
         sodipodi:arc-type="arc"
         d="m 649.76574,480.73804 a 8.3828669,7.7380314 0 0 1 -8.22292,7.73662 8.3828669,7.7380314 0 0 1 -8.53671,-7.44139 8.3828669,7.7380314 0 0 1 7.89716,-8.02059 8.3828669,7.7380314 0 0 1 8.83807,7.13533" />
      <path
         style="fill:#00b3b8;fill-opacity:1;fill-rule:evenodd;stroke-width:0.357004"
         id="path3-3-1-3-6-2-5-9-2-4-0-6-5"
         sodipodi:type="arc"
         sodipodi:cx="662.38287"
         sodipodi:cy="490.73804"
         sodipodi:rx="8.3828669"
         sodipodi:ry="7.7380314"
         sodipodi:start="0"
         sodipodi:end="6.2068606"
         sodipodi:open="true"
         sodipodi:arc-type="arc"
         d="m 670.76574,490.73804 a 8.3828669,7.7380314 0 0 1 -8.22292,7.73662 8.3828669,7.7380314 0 0 1 -8.53671,-7.44139 8.3828669,7.7380314 0 0 1 7.89716,-8.02059 8.3828669,7.7380314 0 0 1 8.83807,7.13533" />
      <path
         style="fill:#00b3b8;fill-opacity:1;fill-rule:evenodd;stroke-width:0.357004"
         id="path3-3-1-3-6-2-5-9-2-4-0-6-9"
         sodipodi:type="arc"
         sodipodi:cx="647.88287"
         sodipodi:cy="613.23804"
         sodipodi:rx="8.3828669"
         sodipodi:ry="7.7380314"
         sodipodi:start="0"
         sodipodi:end="6.2068606"
         sodipodi:open="true"
         sodipodi:arc-type="arc"
         d="m 656.26574,613.23804 a 8.3828669,7.7380314 0 0 1 -8.22292,7.73662 8.3828669,7.7380314 0 0 1 -8.53671,-7.44139 8.3828669,7.7380314 0 0 1 7.89716,-8.02059 8.3828669,7.7380314 0 0 1 8.83807,7.13533" />
      <path
         style="fill:#00b3b8;fill-opacity:1;fill-rule:evenodd;stroke-width:0.240922"
         id="path3-3-1-3-6-2-5-9-2-4-0-6-1"
         sodipodi:type="arc"
         sodipodi:cx="522.38287"
         sodipodi:cy="454.98804"
         sodipodi:rx="5.3828669"
         sodipodi:ry="5.4880314"
         sodipodi:start="0"
         sodipodi:end="6.2068606"
         sodipodi:open="true"
         sodipodi:arc-type="arc"
         d="m 527.76574,454.98804 a 5.3828669,5.4880314 0 0 1 -5.28016,5.48703 5.3828669,5.4880314 0 0 1 -5.48165,-5.27765 5.3828669,5.4880314 0 0 1 5.07098,-5.68843 5.3828669,5.4880314 0 0 1 5.67516,5.06058" />
      <path
         style="fill:#00b3b8;fill-opacity:1;fill-rule:evenodd;stroke-width:0.240922"
         id="path3-3-1-3-6-2-5-9-2-4-0-6-1-90"
         sodipodi:type="arc"
         sodipodi:cx="620.88287"
         sodipodi:cy="477.98804"
         sodipodi:rx="5.3828669"
         sodipodi:ry="5.4880314"
         sodipodi:start="0"
         sodipodi:end="6.2068606"
         sodipodi:open="true"
         sodipodi:arc-type="arc"
         d="m 626.26574,477.98804 a 5.3828669,5.4880314 0 0 1 -5.28016,5.48703 5.3828669,5.4880314 0 0 1 -5.48165,-5.27765 5.3828669,5.4880314 0 0 1 5.07098,-5.68843 5.3828669,5.4880314 0 0 1 5.67516,5.06058" />
      <path
         style="fill:#00b3b8;fill-opacity:1;fill-rule:evenodd;stroke-width:0.240922"
         id="path3-3-1-3-6-2-5-9-2-4-0-6-1-9"
         sodipodi:type="arc"
         sodipodi:cx="620.38287"
         sodipodi:cy="624.48804"
         sodipodi:rx="5.3828669"
         sodipodi:ry="5.4880314"
         sodipodi:start="0"
         sodipodi:end="6.2068606"
         sodipodi:open="true"
         sodipodi:arc-type="arc"
         d="m 625.76574,624.48804 a 5.3828669,5.4880314 0 0 1 -5.28016,5.48703 5.3828669,5.4880314 0 0 1 -5.48165,-5.27765 5.3828669,5.4880314 0 0 1 5.07098,-5.68843 5.3828669,5.4880314 0 0 1 5.67516,5.06058" />
      <path
         style="fill:#00b3b8;fill-opacity:1;fill-rule:evenodd;stroke-width:0.240922"
         id="path3-3-1-3-6-2-5-9-2-4-0-6-1-8"
         sodipodi:type="arc"
         sodipodi:cx="589.88287"
         sodipodi:cy="625.48804"
         sodipodi:rx="5.3828669"
         sodipodi:ry="5.4880314"
         sodipodi:start="0"
         sodipodi:end="6.2068606"
         sodipodi:open="true"
         sodipodi:arc-type="arc"
         d="m 595.26574,625.48804 a 5.3828669,5.4880314 0 0 1 -5.28016,5.48703 5.3828669,5.4880314 0 0 1 -5.48165,-5.27765 5.3828669,5.4880314 0 0 1 5.07098,-5.68843 5.3828669,5.4880314 0 0 1 5.67516,5.06058" />
      <path
         style="fill:#00b3b8;fill-opacity:1;fill-rule:evenodd;stroke-width:0.240922"
         id="path3-3-1-3-6-2-5-9-2-4-0-6-1-0"
         sodipodi:type="arc"
         sodipodi:cx="562.88287"
         sodipodi:cy="619.48804"
         sodipodi:rx="5.3828669"
         sodipodi:ry="5.4880314"
         sodipodi:start="0"
         sodipodi:end="6.2068606"
         sodipodi:open="true"
         sodipodi:arc-type="arc"
         d="m 568.26574,619.48804 a 5.3828669,5.4880314 0 0 1 -5.28016,5.48703 5.3828669,5.4880314 0 0 1 -5.48165,-5.27765 5.3828669,5.4880314 0 0 1 5.07098,-5.68843 5.3828669,5.4880314 0 0 1 5.67516,5.06058" />
      <path
         style="fill:#00b3b8;fill-opacity:1;fill-rule:evenodd;stroke-width:0.179956"
         id="path3-3-1-3-6-2-5-9-2-4-0-6-1-6"
         sodipodi:type="arc"
         sodipodi:cx="506.63287"
         sodipodi:cy="484.98804"
         sodipodi:rx="4.1328669"
         sodipodi:ry="3.9880314"
         sodipodi:start="0"
         sodipodi:end="6.2068606"
         sodipodi:open="true"
         sodipodi:arc-type="arc"
         d="m 510.76574,484.98804 a 4.1328669,3.9880314 0 0 1 -4.05401,3.9873 4.1328669,3.9880314 0 0 1 -4.20871,-3.83515 4.1328669,3.9880314 0 0 1 3.8934,-4.13365 4.1328669,3.9880314 0 0 1 4.35729,3.67741" />
      <path
         style="fill:#00b3b8;fill-opacity:1;fill-rule:evenodd;stroke-width:0.179956"
         id="path3-3-1-3-6-2-5-9-2-4-0-6-1-6-6"
         sodipodi:type="arc"
         sodipodi:cx="580.13287"
         sodipodi:cy="491.98804"
         sodipodi:rx="4.1328669"
         sodipodi:ry="3.9880314"
         sodipodi:start="0"
         sodipodi:end="6.2068606"
         sodipodi:open="true"
         sodipodi:arc-type="arc"
         d="m 584.26574,491.98804 a 4.1328669,3.9880314 0 0 1 -4.05401,3.9873 4.1328669,3.9880314 0 0 1 -4.20871,-3.83515 4.1328669,3.9880314 0 0 1 3.8934,-4.13365 4.1328669,3.9880314 0 0 1 4.35729,3.67741" />
      <path
         style="fill:#00b3b8;fill-opacity:1;fill-rule:evenodd;stroke-width:0.179956"
         id="path3-3-1-3-6-2-5-9-2-4-0-6-1-6-9"
         sodipodi:type="arc"
         sodipodi:cx="600.13287"
         sodipodi:cy="479.98804"
         sodipodi:rx="4.1328669"
         sodipodi:ry="3.9880314"
         sodipodi:start="0"
         sodipodi:end="6.2068606"
         sodipodi:open="true"
         sodipodi:arc-type="arc"
         d="m 604.26574,479.98804 a 4.1328669,3.9880314 0 0 1 -4.05401,3.9873 4.1328669,3.9880314 0 0 1 -4.20871,-3.83515 4.1328669,3.9880314 0 0 1 3.8934,-4.13365 4.1328669,3.9880314 0 0 1 4.35729,3.67741" />
      <path
         style="fill:#00b3b8;fill-opacity:1;fill-rule:evenodd;stroke-width:0.179956"
         id="path3-3-1-3-6-2-5-9-2-4-0-6-1-6-71"
         sodipodi:type="arc"
         sodipodi:cx="534.63287"
         sodipodi:cy="603.98804"
         sodipodi:rx="4.1328669"
         sodipodi:ry="3.9880314"
         sodipodi:start="0"
         sodipodi:end="6.2068606"
         sodipodi:open="true"
         sodipodi:arc-type="arc"
         d="m 538.76574,603.98804 a 4.1328669,3.9880314 0 0 1 -4.05401,3.9873 4.1328669,3.9880314 0 0 1 -4.20871,-3.83515 4.1328669,3.9880314 0 0 1 3.8934,-4.13365 4.1328669,3.9880314 0 0 1 4.35729,3.67741" />
      <path
         style="fill:#00b3b8;fill-opacity:1;fill-rule:evenodd;stroke-width:0.152263"
         id="path3-3-1-3-6-2-5-9-2-4-0-6-1-6-7"
         sodipodi:type="arc"
         sodipodi:cx="501.38287"
         sodipodi:cy="515.98804"
         sodipodi:rx="3.3828669"
         sodipodi:ry="3.4880314"
         sodipodi:start="0"
         sodipodi:end="6.2068606"
         sodipodi:open="true"
         sodipodi:arc-type="arc"
         d="m 504.76574,515.98804 a 3.3828669,3.4880314 0 0 1 -3.31832,3.48739 3.3828669,3.4880314 0 0 1 -3.44495,-3.35431 3.3828669,3.4880314 0 0 1 3.18686,-3.6154 3.3828669,3.4880314 0 0 1 3.56656,3.21635" />
      <path
         style="fill:#00b3b8;fill-opacity:1;fill-rule:evenodd;stroke-width:0.152263"
         id="path3-3-1-3-6-2-5-9-2-4-0-6-1-6-7-9"
         sodipodi:type="arc"
         sodipodi:cx="514.88287"
         sodipodi:cy="578.98804"
         sodipodi:rx="3.3828669"
         sodipodi:ry="3.4880314"
         sodipodi:start="0"
         sodipodi:end="6.2068606"
         sodipodi:open="true"
         sodipodi:arc-type="arc"
         d="m 518.26574,578.98804 a 3.3828669,3.4880314 0 0 1 -3.31832,3.48739 3.3828669,3.4880314 0 0 1 -3.44495,-3.35431 3.3828669,3.4880314 0 0 1 3.18686,-3.6154 3.3828669,3.4880314 0 0 1 3.56656,3.21635" />
      <path
         style="fill:#00b3b8;fill-opacity:1;fill-rule:evenodd;stroke-width:0.152263"
         id="path3-3-1-3-6-2-5-9-2-4-0-6-1-6-7-9-3"
         sodipodi:type="arc"
         sodipodi:cx="565.38287"
         sodipodi:cy="534.98804"
         sodipodi:rx="3.3828669"
         sodipodi:ry="3.4880314"
         sodipodi:start="0"
         sodipodi:end="6.2068606"
         sodipodi:open="true"
         sodipodi:arc-type="arc"
         d="m 568.76574,534.98804 a 3.3828669,3.4880314 0 0 1 -3.31832,3.48739 3.3828669,3.4880314 0 0 1 -3.44495,-3.35431 3.3828669,3.4880314 0 0 1 3.18686,-3.6154 3.3828669,3.4880314 0 0 1 3.56656,3.21635" />
      <path
         style="fill:#00b3b8;fill-opacity:1;fill-rule:evenodd;stroke-width:0.152263"
         id="path3-3-1-3-6-2-5-9-2-4-0-6-1-6-7-4"
         sodipodi:type="arc"
         sodipodi:cx="502.38287"
         sodipodi:cy="549.48804"
         sodipodi:rx="3.3828669"
         sodipodi:ry="3.4880314"
         sodipodi:start="0"
         sodipodi:end="6.2068606"
         sodipodi:open="true"
         sodipodi:arc-type="arc"
         d="m 505.76574,549.48804 a 3.3828669,3.4880314 0 0 1 -3.31832,3.48739 3.3828669,3.4880314 0 0 1 -3.44495,-3.35431 3.3828669,3.4880314 0 0 1 3.18686,-3.6154 3.3828669,3.4880314 0 0 1 3.56656,3.21635" />
      <path
         style="fill:#00b3b8;fill-opacity:1;fill-rule:evenodd;stroke-width:0.152263"
         id="path3-3-1-3-6-2-5-9-2-4-0-6-1-6-7-4-8"
         sodipodi:type="arc"
         sodipodi:cx="566.38287"
         sodipodi:cy="509.48804"
         sodipodi:rx="3.3828669"
         sodipodi:ry="3.4880314"
         sodipodi:start="0"
         sodipodi:end="6.2068606"
         sodipodi:open="true"
         sodipodi:arc-type="arc"
         d="m 569.76574,509.48804 a 3.3828669,3.4880314 0 0 1 -3.31832,3.48739 3.3828669,3.4880314 0 0 1 -3.44495,-3.35431 3.3828669,3.4880314 0 0 1 3.18686,-3.6154 3.3828669,3.4880314 0 0 1 3.56656,3.21635" />
    </g>
    <path
       style="fill:#ff0000;fill-opacity:1;fill-rule:evenodd"
       id="path8"
       sodipodi:type="arc"
       sodipodi:cx="763.5"
       sodipodi:cy="644"
       sodipodi:rx="11.5"
       sodipodi:ry="12.5"
       sodipodi:start="0"
       sodipodi:end="6.2068606"
       sodipodi:open="true"
       sodipodi:arc-type="arc"
       d="m 775,644 a 11.5,12.5 0 0 1 -11.28058,12.49772 11.5,12.5 0 0 1 -11.71105,-12.02081 11.5,12.5 0 0 1 10.83369,-12.95644 11.5,12.5 0 0 1 12.12446,11.5264" />
    <path
       style="fill:#ff0000;fill-opacity:1;fill-rule:evenodd"
       id="path7"
       sodipodi:type="arc"
       sodipodi:cx="620.5"
       sodipodi:cy="395.25"
       sodipodi:rx="14.5"
       sodipodi:ry="15.25"
       sodipodi:start="0"
       sodipodi:end="6.2068606"
       sodipodi:arc-type="arc"
       d="m 635,395.25 a 14.5,15.25 0 0 1 -14.22334,15.24722 14.5,15.25 0 0 1 -14.7661,-14.66539 14.5,15.25 0 0 1 13.65986,-15.80685 14.5,15.25 0 0 1 15.28737,14.0622"
       sodipodi:open="true" />
  </g>
</svg>
